<mxfile host="app.diagrams.net" modified="2023-04-06T16:44:26.197Z" agent="Mozilla/5.0 (Windows NT 10.0; Win64; x64) AppleWebKit/537.36 (KHTML, like Gecko) Chrome/111.0.0.0 Safari/537.36" etag="j1aW7rwbcURjEbCk4DPT" version="21.1.4" type="device">
  <diagram name="Page-1" id="a41RzYTnLNJZxJ1ma763">
    <mxGraphModel dx="1050" dy="573" grid="1" gridSize="10" guides="1" tooltips="1" connect="1" arrows="1" fold="1" page="1" pageScale="1" pageWidth="850" pageHeight="1100" math="0" shadow="0">
      <root>
        <mxCell id="0" />
        <mxCell id="1" parent="0" />
        <mxCell id="vtGNpGcUsherhaG67xHw-1" value="" style="rounded=0;whiteSpace=wrap;html=1;" vertex="1" parent="1">
          <mxGeometry x="170" y="110" width="500" height="300" as="geometry" />
        </mxCell>
        <mxCell id="vtGNpGcUsherhaG67xHw-2" value="" style="rounded=0;whiteSpace=wrap;html=1;fillColor=#dae8fc;strokeColor=#6c8ebf;" vertex="1" parent="1">
          <mxGeometry x="170" y="110" width="140" height="300" as="geometry" />
        </mxCell>
        <mxCell id="vtGNpGcUsherhaG67xHw-3" value="" style="rounded=0;whiteSpace=wrap;html=1;fillColor=#dae8fc;strokeColor=#6c8ebf;" vertex="1" parent="1">
          <mxGeometry x="310" y="110" width="140" height="300" as="geometry" />
        </mxCell>
        <mxCell id="vtGNpGcUsherhaG67xHw-4" value="Entire dataset" style="text;html=1;strokeColor=none;fillColor=none;align=center;verticalAlign=middle;whiteSpace=wrap;rounded=0;" vertex="1" parent="1">
          <mxGeometry x="380" y="50" width="60" height="30" as="geometry" />
        </mxCell>
        <mxCell id="vtGNpGcUsherhaG67xHw-5" value="Model test data" style="text;html=1;strokeColor=none;fillColor=none;align=center;verticalAlign=middle;whiteSpace=wrap;rounded=0;" vertex="1" parent="1">
          <mxGeometry x="210" y="140" width="60" height="30" as="geometry" />
        </mxCell>
        <mxCell id="vtGNpGcUsherhaG67xHw-6" value="Part of model training data&amp;nbsp;" style="text;html=1;strokeColor=none;fillColor=none;align=center;verticalAlign=middle;whiteSpace=wrap;rounded=0;" vertex="1" parent="1">
          <mxGeometry x="340" y="130" width="80" height="50" as="geometry" />
        </mxCell>
        <mxCell id="vtGNpGcUsherhaG67xHw-8" style="edgeStyle=orthogonalEdgeStyle;rounded=0;orthogonalLoop=1;jettySize=auto;html=1;entryX=0.5;entryY=1;entryDx=0;entryDy=0;" edge="1" parent="1" source="vtGNpGcUsherhaG67xHw-7" target="vtGNpGcUsherhaG67xHw-2">
          <mxGeometry relative="1" as="geometry" />
        </mxCell>
        <mxCell id="vtGNpGcUsherhaG67xHw-9" style="edgeStyle=orthogonalEdgeStyle;rounded=0;orthogonalLoop=1;jettySize=auto;html=1;entryX=0.5;entryY=1;entryDx=0;entryDy=0;" edge="1" parent="1" source="vtGNpGcUsherhaG67xHw-7" target="vtGNpGcUsherhaG67xHw-3">
          <mxGeometry relative="1" as="geometry" />
        </mxCell>
        <mxCell id="vtGNpGcUsherhaG67xHw-7" value="Entire dataset for attack model" style="rounded=1;whiteSpace=wrap;html=1;fillColor=#dae8fc;strokeColor=#6c8ebf;" vertex="1" parent="1">
          <mxGeometry x="260" y="460" width="120" height="50" as="geometry" />
        </mxCell>
        <mxCell id="vtGNpGcUsherhaG67xHw-10" value="" style="endArrow=none;html=1;rounded=0;exitX=0;exitY=0.433;exitDx=0;exitDy=0;exitPerimeter=0;entryX=1.011;entryY=0.439;entryDx=0;entryDy=0;entryPerimeter=0;" edge="1" parent="1" source="vtGNpGcUsherhaG67xHw-2" target="vtGNpGcUsherhaG67xHw-3">
          <mxGeometry width="50" height="50" relative="1" as="geometry">
            <mxPoint x="400" y="380" as="sourcePoint" />
            <mxPoint x="450" y="330" as="targetPoint" />
          </mxGeometry>
        </mxCell>
        <mxCell id="vtGNpGcUsherhaG67xHw-13" style="edgeStyle=orthogonalEdgeStyle;rounded=0;orthogonalLoop=1;jettySize=auto;html=1;entryX=0.006;entryY=0.181;entryDx=0;entryDy=0;entryPerimeter=0;" edge="1" parent="1" source="vtGNpGcUsherhaG67xHw-11" target="vtGNpGcUsherhaG67xHw-2">
          <mxGeometry relative="1" as="geometry" />
        </mxCell>
        <mxCell id="vtGNpGcUsherhaG67xHw-11" value="Attack model train data" style="rounded=1;whiteSpace=wrap;html=1;" vertex="1" parent="1">
          <mxGeometry x="20" y="140" width="120" height="60" as="geometry" />
        </mxCell>
        <mxCell id="vtGNpGcUsherhaG67xHw-14" style="edgeStyle=orthogonalEdgeStyle;rounded=0;orthogonalLoop=1;jettySize=auto;html=1;entryX=0;entryY=0.75;entryDx=0;entryDy=0;" edge="1" parent="1" source="vtGNpGcUsherhaG67xHw-12" target="vtGNpGcUsherhaG67xHw-2">
          <mxGeometry relative="1" as="geometry" />
        </mxCell>
        <mxCell id="vtGNpGcUsherhaG67xHw-12" value="Attack model test data" style="rounded=1;whiteSpace=wrap;html=1;" vertex="1" parent="1">
          <mxGeometry x="20" y="270" width="110" height="60" as="geometry" />
        </mxCell>
        <mxCell id="vtGNpGcUsherhaG67xHw-15" value="" style="endArrow=none;dashed=1;html=1;dashPattern=1 3;strokeWidth=2;rounded=0;exitX=0;exitY=1;exitDx=0;exitDy=0;" edge="1" parent="1" source="vtGNpGcUsherhaG67xHw-2" target="vtGNpGcUsherhaG67xHw-3">
          <mxGeometry width="50" height="50" relative="1" as="geometry">
            <mxPoint x="400" y="270" as="sourcePoint" />
            <mxPoint x="450" y="220" as="targetPoint" />
            <Array as="points">
              <mxPoint x="450" y="280" />
            </Array>
          </mxGeometry>
        </mxCell>
        <mxCell id="vtGNpGcUsherhaG67xHw-16" value="" style="endArrow=none;dashed=1;html=1;dashPattern=1 3;strokeWidth=2;rounded=0;exitX=0;exitY=0;exitDx=0;exitDy=0;" edge="1" parent="1" source="vtGNpGcUsherhaG67xHw-2">
          <mxGeometry width="50" height="50" relative="1" as="geometry">
            <mxPoint x="400" y="270" as="sourcePoint" />
            <mxPoint x="450" y="220" as="targetPoint" />
          </mxGeometry>
        </mxCell>
      </root>
    </mxGraphModel>
  </diagram>
</mxfile>
